<svg xmlns="http://www.w3.org/2000/svg" viewBox="0 0 171.8 88.46"><title>Indian Premier League logo</title><path d="M492.95,483.27q-.26,2.27-.35,4.52t-.09,4.54q0,2.27.08,4.52t.37,4.52h-5.69a40.89,40.89,0,0,0,.38-4.5q.07-2.26.07-4.53t-.08-4.54q-.08-2.24-.36-4.52Z" transform="translate(-426.1 -467.77)" style="fill:#19398a"/><path d="M499.89,483.27q2.32,2.74,4.76,5.33t5,5.12q-.05-2.64-.19-5.24t-.48-5.21h3.47q-.21,2-.35,4t-.14,4.11q0,2.51,0,5t.09,5h-2.61q-2.61-2.92-5.23-5.74t-5.39-5.56q-.08,1-.08,2,0,2.35.12,4.66a43,43,0,0,0,.48,4.61H496q.29-2.43.38-4.82t.09-4.84q0-2.14-.08-4.22t-.21-4.22Z" transform="translate(-426.1 -467.77)" style="fill:#19398a"/><path d="M523,483.27q1.23,0,2.44.06a10.66,10.66,0,0,1,2.39.41,7.17,7.17,0,0,1,4.07,2.67,8,8,0,0,1,1.33,4.71,10.59,10.59,0,0,1-.93,4.57,9.34,9.34,0,0,1-2.52,3.26,10.93,10.93,0,0,1-3.75,2,15.42,15.42,0,0,1-4.58.67q-1.38,0-3-.08a11.73,11.73,0,0,1-2.92-.5,37.1,37.1,0,0,0,.27-3.81q0-1.9,0-3.84,0-2.53-.06-5.05t-.38-5.05Zm-2.3,9.19q0,1.25,0,2.61t.09,2.61a5.12,5.12,0,0,0,.1.84,1.14,1.14,0,0,0,.26.53,1,1,0,0,0,.51.27,3.73,3.73,0,0,0,.85.08,4.57,4.57,0,0,0,2.48-.64,5.22,5.22,0,0,0,1.66-1.66,7.71,7.71,0,0,0,1-2.29,11.43,11.43,0,0,0,.34-2.52,9.93,9.93,0,0,0-.22-2.55,6.35,6.35,0,0,0-.93-2.21,4.91,4.91,0,0,0-1.71-1.55,5.16,5.16,0,0,0-2.54-.59h-1.85Z" transform="translate(-426.1 -467.77)" style="fill:#19398a"/><path d="M540.8,483.27q-.26,2.27-.35,4.52t-.09,4.54q0,2.27.08,4.52t.37,4.52h-5.69a41.68,41.68,0,0,0,.38-4.5q.06-2.26.06-4.53t-.08-4.54q-.08-2.24-.36-4.52Z" transform="translate(-426.1 -467.77)" style="fill:#19398a"/><path d="M553.44,483.27q1.07,3,2.23,5.85t2.42,5.77q.73,1.65,1.51,3.25l1.57,3.22h-6.06q-.5-1.33-1-2.6T553,496.19h-5.66q-.47,1.28-1,2.56t-.85,2.61h-3.6q2.35-4.75,4.47-9.56.91-2.11,1.8-4.23t1.64-4.31ZM548,493.95h4.2L550,488.46Z" transform="translate(-426.1 -467.77)" style="fill:#19398a"/><path d="M566.1,483.27q2.32,2.74,4.76,5.33t5,5.12q-.05-2.64-.19-5.24t-.48-5.21h3.47q-.21,2-.35,4t-.14,4.11q0,2.51,0,5t.09,5h-2.61q-2.61-2.92-5.23-5.74t-5.39-5.56q-.08,1-.08,2,0,2.35.12,4.66a42.61,42.61,0,0,0,.48,4.61h-3.4q.29-2.43.38-4.82t.09-4.84q0-2.14-.08-4.22t-.21-4.22Z" transform="translate(-426.1 -467.77)" style="fill:#19398a"/><path d="M487.25,524.26q.29-2.27.36-4.52t.08-4.52q0-2.3-.08-4.54t-.36-4.52h7.62a12.31,12.31,0,0,1,2.23.19,5.14,5.14,0,0,1,1.85.71,3.59,3.59,0,0,1,1.25,1.38,4.83,4.83,0,0,1,.45,2.23,5.81,5.81,0,0,1-.47,2.4,4.83,4.83,0,0,1-1.29,1.74,5.59,5.59,0,0,1-1.93,1,7.92,7.92,0,0,1-2.42.35c-.21,0-.42,0-.63,0s-.42,0-.63-.08l-.57-1.12a2.89,2.89,0,0,0,1.41-.4,2.49,2.49,0,0,0,.85-.9,3.74,3.74,0,0,0,.4-1.25,9.76,9.76,0,0,0,.1-1.44,3,3,0,0,0-.59-2.13,2.85,2.85,0,0,0-2-.59,1.73,1.73,0,0,0-.36,0v8.93q0,1.77.1,3.52t.34,3.5Z" transform="translate(-426.1 -467.77)" style="fill:#19398a"/><path d="M513.95,516.93q.38.44.74,1t.68,1l.5.78,1.5,2.28,1.5,2.28h-6.34q-1-2-2.17-3.94l-.59-1a7.41,7.41,0,0,0-.67-1,2.25,2.25,0,0,0-.29-.33.67.67,0,0,0-.39-.14q.05,1.62.12,3.2t.27,3.17h-5.69q.29-2.27.37-4.52t.08-4.52q0-2.29-.08-4.54t-.37-4.52h8.17a9.69,9.69,0,0,1,2.14.23,5.54,5.54,0,0,1,1.87.78,4.11,4.11,0,0,1,1.32,1.44,4.44,4.44,0,0,1,.5,2.19A5.17,5.17,0,0,1,516,514.3a6.13,6.13,0,0,1-3.22,1.84l.25.09.22.09a2.4,2.4,0,0,1,.69.6m-5.52-1.38H509a2.34,2.34,0,0,0,1.33-.37,2.75,2.75,0,0,0,.88-.94,4.4,4.4,0,0,0,.47-1.29,7.16,7.16,0,0,0,.14-1.4,3.52,3.52,0,0,0-.63-2.15,2.33,2.33,0,0,0-2-.85h-.73Z" transform="translate(-426.1 -467.77)" style="fill:#19398a"/><path d="M532.34,524.26q-1.93-.13-3.87-.16l-3.84,0h-1.2c-.38,0-.77,0-1.17.05s-.63.06-.94.08l-.94.05q.29-2.27.37-4.52t.08-4.52q0-2.3-.08-4.54t-.37-4.52c.54,0,1.07,0,1.59,0s1.05,0,1.59,0h3.83q1.89,0,3.83-.06V509a15.94,15.94,0,0,0-2.55-.51,23.21,23.21,0,0,0-2.6-.14h-.42V514l.21,0h.23q1.1,0,2.34-.1t2.34-.24v2.66q-1.1-.13-2.19-.22t-2.22-.09h-.71v2.48c0,.56,0,1.1,0,1.65a12.69,12.69,0,0,0,.16,1.62,6.21,6.21,0,0,0,1.52.18,18.65,18.65,0,0,0,2.62-.18l2.57-.37Z" transform="translate(-426.1 -467.77)" style="fill:#19398a"/><path d="M540.07,506.17l2.66,6.19q1.33,3.08,2.92,6.06,1.49-3,2.82-6t2.43-6.2h4.18q.21,4.57.7,9.07t1.31,9h-5.64q0-2.77-.18-5.48t-.5-5.48q-1.33,2.69-2.53,5.43T546,524.26H542.6q-1.2-2.77-2.4-5.48t-2.53-5.43q-.21,2.27-.32,4.49t-.12,4.49v1c0,.31,0,.63,0,.94h-3.39q.47-2,.76-4.09t.5-4.11q.26-2.48.47-4.93t.21-5Z" transform="translate(-426.1 -467.77)" style="fill:#19398a"/><path d="M565,506.17q-.26,2.27-.35,4.52t-.09,4.54q0,2.27.08,4.52t.37,4.52h-5.69a41.28,41.28,0,0,0,.38-4.5q.06-2.26.07-4.53t-.08-4.54q-.08-2.24-.36-4.52Z" transform="translate(-426.1 -467.77)" style="fill:#19398a"/><path d="M580.07,524.26q-1.93-.13-3.87-.16l-3.84,0h-1.2c-.38,0-.78,0-1.17.05s-.63.06-.94.08l-.94.05q.29-2.27.37-4.52t.08-4.52q0-2.3-.08-4.54t-.37-4.52q.81,0,1.59,0t1.59,0h3.82q1.89,0,3.83-.06V509a15.94,15.94,0,0,0-2.55-.51,23.18,23.18,0,0,0-2.6-.14h-.42V514l.21,0h.23q1.1,0,2.34-.1t2.34-.24v2.66q-1.1-.13-2.19-.22t-2.22-.09h-.71v2.48c0,.56,0,1.1,0,1.65a12.4,12.4,0,0,0,.16,1.62,6.21,6.21,0,0,0,1.52.18,18.66,18.66,0,0,0,2.62-.18l2.57-.37Z" transform="translate(-426.1 -467.77)" style="fill:#19398a"/><path d="M593,516.93q.38.44.74,1t.68,1l.49.78,1.5,2.28,1.5,2.28h-6.34q-1-2-2.17-3.94l-.59-1a7.41,7.41,0,0,0-.67-1,2.35,2.35,0,0,0-.29-.33.67.67,0,0,0-.39-.14q.05,1.62.12,3.2t.27,3.17h-5.69q.29-2.27.37-4.52t.08-4.52q0-2.29-.08-4.54t-.37-4.52h8.17a9.71,9.71,0,0,1,2.14.23,5.54,5.54,0,0,1,1.87.78,4.12,4.12,0,0,1,1.32,1.44,4.46,4.46,0,0,1,.5,2.19A5.17,5.17,0,0,1,595,514.3a6.13,6.13,0,0,1-3.22,1.84l.25.09.22.09a2.42,2.42,0,0,1,.69.6m-5.52-1.38H588a2.35,2.35,0,0,0,1.33-.37,2.76,2.76,0,0,0,.88-.94,4.4,4.4,0,0,0,.47-1.29,7.15,7.15,0,0,0,.14-1.4,3.52,3.52,0,0,0-.63-2.15,2.33,2.33,0,0,0-2-.85h-.73Z" transform="translate(-426.1 -467.77)" style="fill:#19398a"/><path d="M499.21,547.17q-1.93-.13-3.87-.16l-3.84,0h-1.2c-.4,0-.8,0-1.2.05l-.93.08-.93.05q.29-2.27.36-4.52t.08-4.52q0-2.3-.08-4.54t-.36-4.52h5.69q-.26,2.27-.35,4.52t-.09,4.54c0,.51,0,1,0,1.51s0,1,0,1.52,0,1.16,0,1.75a14.16,14.16,0,0,0,.16,1.75,3.09,3.09,0,0,0,.76.16l.76,0a18.7,18.7,0,0,0,2.62-.18l2.57-.36Z" transform="translate(-426.1 -467.77)" style="fill:#19398a"/><path d="M513.23,547.17q-1.93-.13-3.86-.16l-3.84,0h-1.2c-.38,0-.78,0-1.17.05l-.94.08-.94.05q.29-2.27.37-4.52t.08-4.52q0-2.3-.08-4.54t-.37-4.52c.54,0,1.07,0,1.59,0s1.05,0,1.59,0h3.82q1.89,0,3.83-.07v2.82a15.94,15.94,0,0,0-2.55-.51,23.16,23.16,0,0,0-2.6-.14h-.42v5.59l.21,0H507q1.1,0,2.34-.1t2.34-.24v2.66q-1.1-.13-2.19-.22t-2.22-.09h-.71v2.48q0,.84,0,1.65a12.71,12.71,0,0,0,.16,1.62,6.21,6.21,0,0,0,1.52.18,18.69,18.69,0,0,0,2.62-.18l2.57-.36Z" transform="translate(-426.1 -467.77)" style="fill:#19398a"/><path d="M525.63,529.07q1.07,3,2.23,5.85t2.41,5.77q.73,1.64,1.51,3.25l1.57,3.22H527.3q-.49-1.33-1-2.6T525.19,542h-5.66c-.31.85-.63,1.71-1,2.56s-.61,1.72-.85,2.61h-3.6q2.35-4.75,4.46-9.56.91-2.11,1.8-4.23t1.64-4.31Zm-5.43,10.68h4.2l-2.19-5.48Z" transform="translate(-426.1 -467.77)" style="fill:#19398a"/><path d="M550,538.81q-.18,1.36-.29,2.7c-.07.9-.1,1.8-.1,2.7q0,.6,0,1.16a7.85,7.85,0,0,0,.17,1.15,11.93,11.93,0,0,1-1.62.45c-.61.13-1.24.23-1.89.31s-1.3.13-1.93.17-1.2.05-1.71.05a11.9,11.9,0,0,1-3.76-.59,9.17,9.17,0,0,1-3.11-1.72,8.16,8.16,0,0,1-2.1-2.77,8.68,8.68,0,0,1-.77-3.75,9.57,9.57,0,0,1,.91-4.28,9.06,9.06,0,0,1,2.45-3.09,10.81,10.81,0,0,1,3.58-1.88,14.29,14.29,0,0,1,4.31-.64,22.83,22.83,0,0,1,2.65.16,5.84,5.84,0,0,1,2.49.89l-.86,3.52H548a5.26,5.26,0,0,0-1.82-1.84,4.88,4.88,0,0,0-2.49-.61,4.8,4.8,0,0,0-2.56.64,5.08,5.08,0,0,0-1.68,1.67,7.26,7.26,0,0,0-.91,2.33,12.44,12.44,0,0,0-.27,2.6,13.09,13.09,0,0,0,.25,2.48,7.61,7.61,0,0,0,.85,2.34,5.22,5.22,0,0,0,1.58,1.74,4.13,4.13,0,0,0,2.41.68l.77,0a5.06,5.06,0,0,0,.74-.1c0-.21,0-.42,0-.63V544q0-1.31-.09-2.59t-.27-2.58Z" transform="translate(-426.1 -467.77)" style="fill:#19398a"/><path d="M558.45,529.07a46.33,46.33,0,0,0-.42,5.4q-.05,2.72-.05,5.43a18.27,18.27,0,0,0,.1,2,4.56,4.56,0,0,0,.5,1.69,3,3,0,0,0,1.14,1.17,4,4,0,0,0,2,.44,3.89,3.89,0,0,0,2.46-.67,3.81,3.81,0,0,0,1.21-1.7,7.27,7.27,0,0,0,.42-2.3q0-1.27,0-2.44,0-2.3-.16-4.54t-.42-4.49h3.45q-.24,2.19-.39,4.39-.1,1.65-.14,3.26t0,3.26q0,3.86-1.76,5.66t-5.65,1.8a15.35,15.35,0,0,1-3-.27,6.32,6.32,0,0,1-2.4-1,4.77,4.77,0,0,1-1.59-1.89,6.91,6.91,0,0,1-.58-3q0-.91,0-1.79c0-.58,0-1.18,0-1.79q0-2.17-.1-4.32t-.37-4.32Z" transform="translate(-426.1 -467.77)" style="fill:#19398a"/><path d="M583.7,547.17q-1.93-.13-3.86-.16L576,547h-1.2q-.57,0-1.17.05l-.94.08-.94.05q.29-2.27.36-4.52t.08-4.52q0-2.3-.08-4.54t-.36-4.52c.54,0,1.07,0,1.59,0s1.05,0,1.59,0h3.83q1.89,0,3.82-.07v2.82a15.93,15.93,0,0,0-2.54-.51,23.21,23.21,0,0,0-2.6-.14H577v5.59l.21,0h.23q1.1,0,2.34-.1t2.34-.24v2.66q-1.1-.13-2.19-.22t-2.22-.09H577v2.48q0,.84,0,1.65a12.16,12.16,0,0,0,.16,1.62,6.2,6.2,0,0,0,1.51.18,18.69,18.69,0,0,0,2.62-.18l2.57-.36Z" transform="translate(-426.1 -467.77)" style="fill:#19398a"/><path d="M482,529.56a1.92,1.92,0,0,0-.24-.7,1.64,1.64,0,0,0-.92-.68,3,3,0,0,0-2.5.93,7.47,7.47,0,0,1-.36-1l-.67-1.42c-.25-.61-.75-1-.88-1.72-1.35-2-2-4.68-4-6a8.57,8.57,0,0,0-1.37-1.42c-.55-.94-1.64-1.29-2-2.38-.07-.25,0-.58-.13-.83s-.31-.22-.55-.42-.35-.39-.49-.5c-.31-.22-.68-.4-1-.61a44.23,44.23,0,0,1-10.79,8.66l.22.3a3.85,3.85,0,0,1,.91,1.63c0,.29.17.54.21.82a1.93,1.93,0,0,0,.21.62,2.34,2.34,0,0,1,.1.77,3.68,3.68,0,0,0,.16.6c0,.1,0,.19,0,.29s.09.08.12.14a4.28,4.28,0,0,1,.07.55,3.35,3.35,0,0,1,.13.91,13.46,13.46,0,0,0,.14,1.92,23.89,23.89,0,0,1,.09,2.86c0,.49-.05,1-.1,1.47,0,.25-.06.5-.09.75s0,.62-.11.73c-.53.58-.72,1.35-1.21,1.92a10.36,10.36,0,0,1-1.38,1.13l-.81.67a2.82,2.82,0,0,0-.63.54,4.61,4.61,0,0,0-.27.56c-.21.44-.44.87-.66,1.31s-.27.62-.42.93a7.29,7.29,0,0,1-.48.74,5.1,5.1,0,0,1-.52.91,5.66,5.66,0,0,0-.53.61c-.39.5-.56.69-.91,1.22a12.25,12.25,0,0,1-1.09,1.59,13.6,13.6,0,0,1-1.29,1,12.51,12.51,0,0,0-1.29,1.06,7.25,7.25,0,0,0-.34,1.83,3.2,3.2,0,0,0-.21.71,6,6,0,0,0,.21,1c.12.61,0,1.46.48,1.91a3.82,3.82,0,0,0,2.34.78c1.26-.12,2.21-.21,3.5-.3.33-.15.25-.81.24-.92s-.12-.31,0-.5c1.7-2.09,3.08-4.5,5.18-6.18.29.42.65.8,1,1.25a5.81,5.81,0,0,0,1,1.25,3.09,3.09,0,0,0,1.59.58c.7-.37.36-3.29,1-4.43.51-.1.89-.33,1.38-.46,3.11-3.13,6.61-6.33,9.94-9.36a12,12,0,0,1,1.46-1.29c.88-.55,1.94-.73,2.84-1.21,1.47-1.73,3.87-4.5,3.6-5.1m-30.15,25.21c-.31.33-.83.31-2,.26a3.22,3.22,0,0,1-1.78-.39c-.57-.24-.75-.15-.62-1.65s1.37-1.29,2.71-.86,1.37.56,1.43.85.34,1.13.34,1.13.15.44-.05.66m9.77-5.28c0,.39,0,.65-.41.58-.71-.11-.73-.67-1-1.1a9.24,9.24,0,0,1-.52-.84c.16-.42.26-.26.68-.35a10.64,10.64,0,0,1,1-.26c.2,0,.11-.14.24.65a3.55,3.55,0,0,1,0,1.32m6.57-17.3a6.61,6.61,0,0,0-3.76-.58s0,0,0,.08c.09-.11,1.13,0,.83,0a10.48,10.48,0,0,0-2.34.29c1.19-1.14,3.8-.89,5.19-.12.22.11.26.13.45.24.14.3,0,.15-.33.05M481.4,530c-.15.14-.15.15-.29.3a2.86,2.86,0,0,1-.51.53c-.16.16-.25.22-.53.45s-.53.4-.93.72-.66.58-1.09.92a11,11,0,0,1-1.36.78,1.61,1.61,0,0,1-1.19.31c.38-.36.74-.85,1.29-1.3.78-.64,2.06-.84,2-2a4.69,4.69,0,0,0-.44-1.58c.13-.09.29-.18.39-.26a5.69,5.69,0,0,1,.83-.48,1.77,1.77,0,0,1,1.19-.14c.42.09.66.49.86.85a.61.61,0,0,1,.11.44,1.72,1.72,0,0,0-.34.41" transform="translate(-426.1 -467.77)" style="fill:#263d88"/><path d="M435.23,484a43.8,43.8,0,0,0-5.88,11.27,39.09,39.09,0,0,1,5-8.71q1.1-1.46,2.29-2.77c-.5.08-1,.16-1.38.21" transform="translate(-426.1 -467.77)" style="fill:#5091cd"/><path d="M472.28,471c-9.45-7.13-25.4-2-35.94,11.5l1.59-.12c9.46-9.49,22.16-12.48,30.16-6.44,9.07,6.84,8.66,22.69-.91,35.39-4.93,6.53-11.32,11-17.61,12.78,7.36-1.72,15.11-6.88,21-14.73,10.53-14,11.27-31.14,1.67-38.39" transform="translate(-426.1 -467.77)" style="fill:#5091cd"/><path d="M458.16,478.16a2.76,2.76,0,0,1,.69.06h.09c.09,0,.1.16.23.16a1.14,1.14,0,0,1,.62-.08c.18.09.25.29.38.42a.6.6,0,0,1,.88-.25c.19.13.09.34.29.42,0-.29.14-.35.31-.41a.35.35,0,0,1,.26.15s.08.19.08.19c.08.27.14.54.24.8s.09.42.15.53h0v.21a1.59,1.59,0,0,1-.5.13c.05.16.18.24.21.42-.34.26-.8-.14-1.13,0,0,.29.27.34.33.59-.22.4-.68.06-1,0-.17,0-.3.11-.46.08s-.29-.32-.42-.17.45.24.38.46c.64,0,1.07.53,1.67.59a4.82,4.82,0,0,1,.5,0c.47.08.91.87,1,2.09,0-.28.22-1.89.22-2.17.29-.12.48-.33.75-.46,0-.5.07-1,.12-1.5-.47-.08-1-.14-1.43-.23-.12-.41-.33-1.51-.8-1.73h0a3.68,3.68,0,0,0-1.44-.25c-.3,0-.59,0-.88,0a1.84,1.84,0,0,1-.53,0,1.38,1.38,0,0,0-.78-.13c-.1,0-.13.09-.13.11s-.15.15,0,.19.11-.13.2-.18m-4.55,1c-.07-.44.25-.5.5-.62l.27,0c.21,0,.32.29.45.39a.79.79,0,0,1,.24-.44l.5-.06c.26,0,.24.36.44.46,0-.52.73-.65,1-.33a2.26,2.26,0,0,0-.09-.38l-3.63.38a1.2,1.2,0,0,0-.47,0c.45,0,.52.37.75.58m-7.06,18.61,0,0-.37,1.11c0,.11-.05.19-.07.23a15.52,15.52,0,0,0,2.35-.36l.42-.12.57-.24c0-.12,0-.24,0-.29a10.11,10.11,0,0,0-.21-1.19L449,497c-.44.14-.89.27-1.34.37a6.3,6.3,0,0,1-1.07.21l-.08.18M465,511.25a2.7,2.7,0,0,1-.09-.5c-1-1.41-1.82-2.88-2.72-4.31-.3-.48-.59-1-.92-1.46a14.27,14.27,0,0,0-1.17-1.13c-1.17-1.18-2.42-2.23-3.64-3.3.92-1.8,1.77-3.76,2.76-5.47a15.28,15.28,0,0,0,1-1.76,12.64,12.64,0,0,0,.38-1.5c.39-1.54.71-3,1.12-4.52a.94.94,0,0,0,.46-.84c-.35,0-.51-.27-.75-.42-.65.3-1.93.18-2-.42-.16-.81,1-.87,1.09-1.42-.29,0-.83.27-1,0,.27-.2.62-.33.88-.55a9.57,9.57,0,0,0-1.88-1,9.07,9.07,0,0,1-.38-1.84,3.2,3.2,0,0,0,.26-.62c0-.11,0-.17,0-.36-.2,0-.36,0-.47,0s0-.64-.17-.92a2.77,2.77,0,0,1-.29.88,1.24,1.24,0,0,0-.17-.54,8.59,8.59,0,0,0,.38,1.63c-.47-.07-.64.14-1,.13a.24.24,0,0,1-.13.25,23.76,23.76,0,0,0-2.93.88c-.38-.39-.48-1.08-.83-1.5.16.64.52,1.13.71,1.84,1.23-.34,2.23-.93,3.55-1.17a.65.65,0,0,1,.67-.13c0,.23.2.51.08.75-.48-.07-.19,0-.5.09-.1-.06-.12.08-.31.11a1.82,1.82,0,0,0-.52.19c-.21.09-.17.11-.37.14a1,1,0,0,1-.18.09,2,2,0,0,0-.42.12l-.45.13-.56.15a2.66,2.66,0,0,0-.62.16,6.53,6.53,0,0,0-.84-1c-.13.12-.17-.2-.21-.5-.35-.12-.45-.47-.46-.92-.12,0-.29.26-.5.29-.32-.13-.56-.57-1-.62a6.06,6.06,0,0,0-1.38.21,8.81,8.81,0,0,0-1,.14c-2.2.21-9.76,1.44-11.15,1.65,1.45-.13,9.65-1.11,11.46-1.52.8-.06,1.64-.29,2.37-.28a.53.53,0,0,1,.12.42,20.15,20.15,0,0,1-3.51.67c-.68.1-2.85.54-3.26.62-1.75.35-3.74.72-5.68,1l-1.71.29a35.47,35.47,0,0,1-10.41.46c-.28,0-.39,0-.45.07a.61.61,0,0,1,.27-.36,6.5,6.5,0,0,1,1.47-.51h.25c.1-.09-.16,0-.25,0-.43,0-1.15,0-1.46,0a1.17,1.17,0,0,0-.26.46s-.11.48-.11.5v0a4.47,4.47,0,0,0,.62,1.88c1.22,0,2.33.36,3.47.37.93,0,1.86-.13,2.76-.17.75,0,1.49,0,2.26-.08,1.33-.11,2.68-.45,4-.67,4.09-.67,8.13-1.41,12-2.22.37-.39.64-1,1.46-.67.3.65.55,1.35.8,2,.61.19,1.07.67,1.84.38-.34-1.58,1.13-1.72,2.09-2.22-.05.16,0,.22,0,.33.86,0,.75,1,1.13,1.5a2.73,2.73,0,0,0-2.21.33c-.2.11-.62.34-.67.5a5.54,5.54,0,0,0,.2,1.5,8.84,8.84,0,0,1,.21,1.55,6.71,6.71,0,0,1-.51,1.5c-.18.56-.32,1-.45,1.59-1.13,1-2.08,2.21-3.31,3.14,0-.17-.07-.38-.11-.56a2.24,2.24,0,0,1-.48.34l0,0-.11.06a1.56,1.56,0,0,1,.09.3,4.1,4.1,0,0,1,.22.62l.07-.05.26-.24a.93.93,0,0,1,.21-.27.4.4,0,0,1-.16.5,2.35,2.35,0,0,1-.33.32,7.21,7.21,0,0,1,.17,1.77,11.08,11.08,0,0,1-5.82,1.73,2.93,2.93,0,0,1-1.59-.77c-.38-.27-.76-.55-1.14-.83l0,0a2.26,2.26,0,0,1-1.06-1.46v0h0a2,2,0,0,1,0-.68,5.1,5.1,0,0,1,.06.56,2.05,2.05,0,0,1,.12.31,2.33,2.33,0,0,0,1,1.09,21.74,21.74,0,0,0,1.87,1.31,1.18,1.18,0,0,0,.7.24h0c.18-.52.35-1.06.53-1.58l-.33,0c-.74,0-1.52.36-2.11-.14a.62.62,0,0,1-.36-.41.91.91,0,0,1,.58.32l.25.07.2,0c.43,0,.82,0,1.22-.06h.05l.59-.09.35-1,0-.1-.79.18c-.78.21-1.56.41-2.35.59a1,1,0,0,1-.43,0h0a.8.8,0,0,1-.48-.36,1.63,1.63,0,0,1-.08-.23,1.28,1.28,0,0,1-.14-1,1.42,1.42,0,0,0,.86,1.41,2.73,2.73,0,0,0,.54-.11l.33-.08h0c.81-.19,1.6-.4,2.4-.63,1.1-.31,2.2-.63,3.27-1l.37-.14.16-.06.49-.22h0l.32-.17.24-.15.09-.06a.62.62,0,0,0-.08-.42c-.15,0-.37.18-.52.21a5.73,5.73,0,0,1-.74.14c-.1-.42-.35-.71-.45-1.12.57-.34,1.31-.5,1.33-1.38a18.1,18.1,0,0,1-1.82-.87,8.48,8.48,0,0,1-.59-1,5.11,5.11,0,0,0-.59-.75,3.55,3.55,0,0,0-1-.94,7,7,0,0,0-1.16-.4,5.08,5.08,0,0,0-1.17-.29,5,5,0,0,0-.92.17,3.18,3.18,0,0,0-1.68.71,4.33,4.33,0,0,0-.71.58c-.06.08-.24.29-.29.38s-.23.29-.33.47c-.18.34-.18.38-.29.61a6.49,6.49,0,0,0-.66,1.9c0,2,1.19,2.84,1.58,4.49,0-.22-.13-.49,0-.67a2.6,2.6,0,0,1,.13.92c.31.35.85.49,1,1-.39-.07-.71-.67-1-.69a8.13,8.13,0,0,0,1.48,1.15c.08,0,.2,0,.29,0,.45.21.8.76,1.21.88.19.06.24,0,.38.18-.94.16-1.22-1.11-1.79-.84a2.9,2.9,0,0,1-1,.21c-.08.39.42,1,.49,1.34.33.47,0,.7.29,1.21a4.57,4.57,0,0,0,.72.5,16.48,16.48,0,0,0,.38,3c.37.72,1.22,1.2,1.8,1.84s1.51,1.44,2,1.93c1.72,1.67,3.37,3.07,5.15,4.68.45.41,1.53,1.17,1.75,1.67a9.8,9.8,0,0,1,.42,1.55,11.12,11.12,0,0,1,.42,1.55,18.88,18.88,0,0,0,0,2.51,1.51,1.51,0,0,0,.24.46,40.11,40.11,0,0,0,9.44-8.55l.6-.77a1.53,1.53,0,0,0-.87-.46m-14.15-16.31a.19.19,0,0,0-.15,0l0,0,0,0c-.32.13-.65.23-.93.33l-.49.16-.09,0c0,.1,0,.18,0,.26l.23.86c.49-.17,1-.36,1.45-.58l.34-.19-.11-.41a4.12,4.12,0,0,0-.2-.5m-1.69,1.75a3.81,3.81,0,0,0-.32-1.08l0,0-1,.32c-.22.08-.44.15-.67.21-.12.36-.25.72-.37,1.08a.66.66,0,0,0,0,.1l.58-.1a14.66,14.66,0,0,0,1.56-.42l.27-.1m.29.24a11,11,0,0,1,.24,1.38,10.44,10.44,0,0,0,1.38-.55l0,0a1.94,1.94,0,0,1,.27-.17,7,7,0,0,0-.14-1.4l-.12,0a8.28,8.28,0,0,1-1.67.69s0,0,0,0" transform="translate(-426.1 -467.77)" style="fill:#263d88"/></svg>